<?xml version="1.0" encoding="utf-8"?>
<!DOCTYPE svg PUBLIC "-//W3C//DTD SVG 1.1//EN" "http://www.w3.org/Graphics/SVG/1.1/DTD/svg11.dtd">
<svg version="1.1" id="search-icon" xmlns="http://www.w3.org/2000/svg" xmlns:xlink="http://www.w3.org/1999/xlink" x="0px"
	 y="0px" width="40px" height="80px" viewBox="0 0 40 80" enable-background="new 0 0 40 80" xml:space="preserve">
<path d="M24.955,23.745v-0.01c1-1.521,2-3.47,2-5.591c0-4.859-3.955-8.799-8.805-8.799c-4.86,0-8.802,3.94-8.802,8.799
	c0,4.851,3.939,8.801,8.798,8.801c2.011,0,3.87-0.68,5.35-1.82l5.07,5.07l1.42-1.42L24.955,23.745z M11.345,18.144
	c0-3.75,3.05-6.799,6.799-6.799c3.75,0,6.801,3.05,6.801,6.799c0,3.75-3.051,6.801-6.801,6.801
	C14.395,24.945,11.345,21.895,11.345,18.144z"/>
<path fill="#FFFFFF" d="M24.955,64.579v-0.01c1-1.521,2-3.47,2-5.591c0-4.859-3.955-8.799-8.805-8.799
	c-4.86,0-8.802,3.939-8.802,8.799c0,4.851,3.939,8.801,8.798,8.801c2.011,0,3.87-0.68,5.35-1.82l5.07,5.07l1.42-1.42L24.955,64.579z
	 M11.345,58.979c0-3.75,3.05-6.799,6.799-6.799c3.75,0,6.801,3.049,6.801,6.799s-3.051,6.801-6.801,6.801
	C14.395,65.779,11.345,62.729,11.345,58.979z"/>
</svg>
